# xmcd CD database file
#
# Track frame offsets:
#	150
#	19609
#	46017
#	60075
#	77490
#	95831
#	109196
#	121691
#	152113
#	168519
#	184908
#	199026
#	217708
#	231212
#	248116
#	268152
#	286171
#
# Disc length: 4052 seconds
#
# Revision: 0
# Processed by: cddbd v1.5.1PL2 Copyright (c) Steve Scherf et al.
# Submitted via: Feurio! 1.68 - http://www.feurio.com
#
DISCID=d80fd211
DTITLE=Juicy Lucy - Lie Back And Enjoy It - Get A Whiff A Thiss
DYEAR=1900
DGENRE=Blues
TTITLE0=Thinking Of My Life
TTITLE1=Built For Comfort
TTITLE2=Pretty Woman
TTITLE3=Whisky In My Jar
TTITLE4=Hello L.A. Goodbye Birmingham
TTITLE5=Changed My Mind
TTITLE6=That Woman's Got Something
TTITLE7=Willie The Pimp - Lie Back And Enjoy It
TTITLE8=Mr. Skin
TTITLE9=Midnight Sun
TTITLE10=Midnight Rider
TTITLE11=Harvest
TTITLE12=Mr. A. Jones
TTITLE13=Sunday Morning
TTITLE14=Big Lil
TTITLE15=Jessica
TTITLE16=Future Days
EXTD=
EXTT0=
EXTT1=
EXTT2=
EXTT3=
EXTT4=
EXTT5=
EXTT6=
EXTT7=
EXTT8=
EXTT9=
EXTT10=
EXTT11=
EXTT12=
EXTT13=
EXTT14=
EXTT15=
EXTT16=
PLAYORDER=
